<svg width="702" height="1500" viewBox="0 0 702 1500" fill="none" xmlns="http://www.w3.org/2000/svg">
<rect width="702" height="1500" fill="#E5E5E5"/>
<path d="M-460.872 1164.4C-658.661 1044.42 -721.939 787.145 -602.207 589.766C-482.476 392.387 -225.075 329.643 -27.2862 449.623C170.502 569.604 579.171 955.977 459.439 1153.36C339.707 1350.74 -263.084 1284.38 -460.872 1164.4Z" fill="url(#paint0_linear_0_1)"/>
<path d="M-465.545 1146.97C-660.437 1022.34 -717.606 763.641 -593.234 569.153C-468.863 374.664 -210.048 318.032 -15.1559 442.662C179.736 567.292 579.142 963.233 454.77 1157.72C330.399 1352.21 -270.652 1271.6 -465.545 1146.97Z" fill="white"/>
<path d="M-478.044 1167.97C-672.936 1043.34 -730.105 784.642 -605.733 590.154C-481.362 395.665 -222.547 339.033 -27.6549 463.663C167.237 588.293 566.643 984.234 442.271 1178.72C317.9 1373.21 -283.151 1292.6 -478.044 1167.97Z" fill="white"/>
<path d="M-501.872 1013.4C-699.661 893.415 -762.939 636.145 -643.207 438.766C-523.476 241.387 -266.075 178.643 -68.2862 298.623C129.502 418.604 538.171 804.977 418.439 1002.36C298.707 1199.74 -304.084 1133.38 -501.872 1013.4Z" fill="url(#paint1_linear_0_1)"/>
<path d="M-506.544 995.967C-701.436 871.338 -758.605 612.641 -634.233 418.153C-509.862 223.664 -251.047 167.032 -56.1549 291.662C138.737 416.292 538.143 812.233 413.771 1006.72C289.4 1201.21 -311.651 1120.6 -506.544 995.967Z" fill="white"/>
<defs>
<linearGradient id="paint0_linear_0_1" x1="323.613" y1="1914.05" x2="274.707" y2="110.16" gradientUnits="userSpaceOnUse">
<stop stop-color="#2145FF"/>
<stop offset="1" stop-color="#3EDAD8"/>
</linearGradient>
<linearGradient id="paint1_linear_0_1" x1="282.613" y1="1763.05" x2="233.707" y2="-40.8398" gradientUnits="userSpaceOnUse">
<stop stop-color="#2145FF"/>
<stop offset="1" stop-color="#3EDAD8"/>
</linearGradient>
</defs>
</svg>
